<svg fill="rgb(17, 185, 164)" height="105pt" preserveAspectRatio="xMidYMid meet" viewBox="0 0 105 105" width="105pt" xmlns="http://www.w3.org/2000/svg"><g transform="matrix(.1 0 0 -.1 0 105)"><path d="m570 801c-55-30-137-122-150-170-20-77 38-206 85-187 28 10 28 36 1 74-44 64-32 106 53 185 40 38 57 47 86 47 75 0 125-54 111-121-3-18-22-49-41-70-38-42-43-60-21-78 18-15 39-5 83 41 59 62 68 124 28 204-43 87-148 120-235 75z"/><path d="m532 588c-12-15-1-48 22-67 10-9 16-29 16-59 0-42-4-49-63-109-72-71-105-80-164-43-62 37-61 112 2 181 29 33 34 43 25 59-16 30-42 24-82-17-43-44-58-79-58-133 0-73 42-138 107-166 76-33 150-7 235 83 61 65 75 102 65 174-10 73-75 133-105 97z"/></g></svg>